<?xml version="1.0" encoding="UTF-8"?>
<svg width="375px" height="812px" viewBox="0 0 375 812" version="1.1" xmlns="http://www.w3.org/2000/svg" xmlns:xlink="http://www.w3.org/1999/xlink">
    <!-- Generator: Sketch 61.2 (89653) - https://sketch.com -->
    <title>iPhone X Mask</title>
    <desc>Created with Sketch.</desc>
    <defs>
        <path d="M292,8.666 L292,8.999 C292,18.264 284.932,29.999 268.667,29.999 L106.667,29.999 C90.402,29.999 83.333,18.264 83.333,8.999 L83.333,8.666 C83.333,4.381 83.333,-0.001 75.667,-0.001 L43.333,-0.001 C16.312,-0.001 0,16.311 0,43.333 L0,768.667 C0,795.688 16.312,812 43.333,812 L331.667,812 C358.688,812 375,795.688 375,768.667 L375,43.333 C375,16.311 358.688,-0.001 331.667,-0.001 L299.667,-0.001 C292,-0.001 292,4.381 292,8.666" id="path-1"></path>
    </defs>
    <g id="Page-1" stroke="none" stroke-width="1" fill="none" fill-rule="evenodd">
        <g id="iPhone-XS-with-Mask">
            <mask id="mask-2" fill="white">
                <use xlink:href="#path-1"></use>
            </mask>
            <use id="iPhone-X-Mask" fill="#8A8A8A" fill-rule="nonzero" xlink:href="#path-1"></use>
        </g>
    </g>
</svg>